<svg width="16" height="16" viewBox="0 0 16 16" fill="none" xmlns="http://www.w3.org/2000/svg">
<path fill-rule="evenodd" clip-rule="evenodd" d="M8 2.66659C5.05448 2.66659 2.66667 5.0544 2.66667 7.99992C2.66667 10.9454 5.05448 13.3333 8 13.3333C10.9455 13.3333 13.3333 10.9454 13.3333 7.99992C13.3333 5.0544 10.9455 2.66659 8 2.66659ZM1.33334 7.99992C1.33334 4.31802 4.3181 1.33325 8 1.33325C11.6819 1.33325 14.6667 4.31802 14.6667 7.99992C14.6667 11.6818 11.6819 14.6666 8 14.6666C4.3181 14.6666 1.33334 11.6818 1.33334 7.99992ZM8 5.33325C8.36819 5.33325 8.66667 5.63173 8.66667 5.99992V7.33325H10C10.3682 7.33325 10.6667 7.63173 10.6667 7.99992C10.6667 8.36811 10.3682 8.66659 10 8.66659H8.66667V9.99992C8.66667 10.3681 8.36819 10.6666 8 10.6666C7.63181 10.6666 7.33334 10.3681 7.33334 9.99992V8.66659H6C5.63181 8.66659 5.33334 8.36811 5.33334 7.99992C5.33334 7.63173 5.63181 7.33325 6 7.33325H7.33334V5.99992C7.33334 5.63173 7.63181 5.33325 8 5.33325Z" fill="#FDC65C"/>
</svg>
