<svg width="188" height="68" viewBox="0 0 188 68" fill="none" xmlns="http://www.w3.org/2000/svg">
<rect x="0.27597" y="0.808105" width="187.546" height="66.3838" rx="10.8262" fill="#11202D"/>
<path d="M46.7049 35.0329C46.7209 33.788 47.0516 32.5674 47.6661 31.4846C48.2806 30.4019 49.1591 29.4922 50.2196 28.8401C49.5459 27.8779 48.657 27.086 47.6237 26.5273C46.5904 25.9687 45.441 25.6587 44.2669 25.622C41.7623 25.3591 39.3342 27.1207 38.058 27.1207C36.757 27.1207 34.792 25.6481 32.6759 25.6916C31.3072 25.7358 29.9733 26.1338 28.8042 26.8468C27.635 27.5599 26.6705 28.5636 26.0046 29.7602C23.1201 34.7543 25.2717 42.094 28.0348 46.1309C29.4173 48.1076 31.033 50.3157 33.1471 50.2374C35.2159 50.1516 35.9885 48.9182 38.4857 48.9182C40.9598 48.9182 41.6847 50.2374 43.8417 50.1876C46.0616 50.1516 47.4602 48.2021 48.7942 46.2066C49.7875 44.7981 50.5518 43.2414 51.0589 41.5942C49.7692 41.0487 48.6686 40.1356 47.8943 38.9688C47.12 37.8021 46.7064 36.4332 46.7049 35.0329Z" fill="white"/>
<path d="M42.6295 22.967C43.8399 21.5139 44.4362 19.6463 44.2918 17.7607C42.4426 17.955 40.7345 18.8388 39.5077 20.236C38.908 20.9186 38.4486 21.7128 38.1559 22.573C37.8632 23.4332 37.7429 24.3427 37.8019 25.2495C38.7269 25.259 39.6419 25.0585 40.4781 24.6632C41.3143 24.2678 42.0499 23.6878 42.6295 22.967Z" fill="white"/>
<path d="M72.5421 42.3572H66.1365L64.5982 46.8994H61.8851L67.9524 30.0944H70.7712L76.8385 46.8994H74.0791L72.5421 42.3572ZM66.8 40.2612H71.8774L69.3744 32.8895H69.3044L66.8 40.2612Z" fill="white"/>
<path d="M89.9417 40.774C89.9417 44.5814 87.9039 47.0276 84.8286 47.0276C84.0496 47.0683 83.2749 46.8889 82.5931 46.5098C81.9113 46.1307 81.3501 45.5672 80.9737 44.884H80.9155V50.9526H78.4005V34.6472H80.8349V36.6851H80.8811C81.2749 36.0051 81.8456 35.4446 82.5326 35.0632C83.2195 34.6817 83.997 34.4937 84.7824 34.519C87.892 34.519 89.9417 36.9771 89.9417 40.774ZM87.3568 40.774C87.3568 38.2934 86.0749 36.6626 84.119 36.6626C82.1974 36.6626 80.9049 38.3278 80.9049 40.774C80.9049 43.2426 82.1974 44.8959 84.119 44.8959C86.0749 44.8959 87.3568 43.277 87.3568 40.774Z" fill="white"/>
<path d="M103.427 40.774C103.427 44.5814 101.389 47.0276 98.3138 47.0276C97.5348 47.0683 96.76 46.8889 96.0783 46.5098C95.3965 46.1307 94.8353 45.5672 94.4588 44.884H94.4006V50.9526H91.8857V34.6472H94.32V36.6851H94.3663C94.76 36.0051 95.3307 35.4446 96.0177 35.0632C96.7047 34.6817 97.4822 34.4937 98.2675 34.519C101.377 34.519 103.427 36.9771 103.427 40.774ZM100.842 40.774C100.842 38.2934 99.56 36.6626 97.6041 36.6626C95.6826 36.6626 94.3901 38.3278 94.3901 40.774C94.3901 43.2426 95.6826 44.8959 97.6041 44.8959C99.56 44.8959 100.842 43.277 100.842 40.774Z" fill="white"/>
<path d="M112.339 42.2171C112.526 43.8836 114.145 44.9778 116.357 44.9778C118.477 44.9778 120.002 43.8835 120.002 42.3809C120.002 41.0765 119.082 40.2955 116.904 39.7603L114.726 39.2356C111.64 38.4902 110.208 37.0471 110.208 34.7053C110.208 31.8058 112.735 29.8142 116.323 29.8142C119.874 29.8142 122.308 31.8058 122.39 34.7053H119.851C119.699 33.0282 118.313 32.0159 116.287 32.0159C114.261 32.0159 112.875 33.0401 112.875 34.5309C112.875 35.7189 113.76 36.418 115.926 36.9532L117.778 37.4078C121.226 38.2232 122.658 39.6083 122.658 42.0663C122.658 45.2103 120.154 47.1794 116.171 47.1794C112.444 47.1794 109.928 45.2566 109.765 42.217L112.339 42.2171Z" fill="white"/>
<path d="M128.086 31.7477V34.6472H130.416V36.6388H128.086V43.3933C128.086 44.4426 128.552 44.9316 129.577 44.9316C129.853 44.9267 130.129 44.9073 130.404 44.8734V46.8531C129.943 46.9391 129.475 46.9781 129.007 46.9694C126.526 46.9694 125.559 46.0377 125.559 43.6615V36.6388H123.778V34.6472H125.559V31.7477H128.086Z" fill="white"/>
<path d="M131.765 40.774C131.765 36.919 134.036 34.4966 137.576 34.4966C141.128 34.4966 143.388 36.9189 143.388 40.774C143.388 44.6395 141.14 47.0514 137.576 47.0514C134.013 47.0514 131.765 44.6395 131.765 40.774ZM140.826 40.774C140.826 38.1295 139.614 36.5688 137.576 36.5688C135.538 36.5688 134.328 38.1414 134.328 40.774C134.328 43.429 135.538 44.9778 137.576 44.9778C139.614 44.9778 140.826 43.429 140.826 40.774Z" fill="white"/>
<path d="M145.462 34.6472H147.86V36.7326H147.918C148.081 36.0813 148.462 35.5057 148.999 35.1026C149.536 34.6995 150.195 34.4934 150.866 34.519C151.155 34.518 151.444 34.5495 151.727 34.6128V36.9652C151.361 36.8534 150.98 36.8021 150.597 36.8132C150.232 36.7984 149.868 36.8628 149.53 37.0021C149.191 37.1413 148.887 37.352 148.638 37.6198C148.39 37.8876 148.201 38.2062 148.087 38.5535C147.973 38.9008 147.935 39.2688 147.977 39.6321V46.8994H145.462L145.462 34.6472Z" fill="white"/>
<path d="M163.323 43.3008C162.984 45.5249 160.818 47.0513 158.047 47.0513C154.483 47.0513 152.27 44.6633 152.27 40.8321C152.27 36.989 154.495 34.4966 157.941 34.4966C161.331 34.4966 163.463 36.8251 163.463 40.54V41.4017H154.809V41.5537C154.769 42.0046 154.826 42.4588 154.975 42.8862C155.124 43.3137 155.362 43.7045 155.674 44.0327C155.986 44.3609 156.364 44.6191 156.783 44.79C157.202 44.9609 157.653 45.0407 158.105 45.0241C158.699 45.0798 159.296 44.9421 159.806 44.6316C160.315 44.3211 160.711 43.8544 160.934 43.3008L163.323 43.3008ZM154.821 39.644H160.946C160.969 39.2386 160.907 38.8329 160.766 38.4523C160.624 38.0717 160.405 37.7246 160.123 37.4326C159.841 37.1406 159.501 36.9101 159.126 36.7555C158.751 36.601 158.347 36.5257 157.941 36.5344C157.532 36.5319 157.126 36.6106 156.747 36.7659C156.368 36.9212 156.023 37.15 155.733 37.4391C155.443 37.7282 155.213 38.0719 155.057 38.4503C154.9 38.8288 154.82 39.2345 154.821 39.644Z" fill="white"/>
<path d="M66.4848 17.4452C67.012 17.4074 67.5411 17.487 68.0338 17.6784C68.5266 17.8698 68.9707 18.1682 69.3342 18.552C69.6977 18.9359 69.9714 19.3956 70.1357 19.898C70.3 20.4004 70.3507 20.9331 70.2842 21.4575C70.2842 24.0371 68.89 25.52 66.4848 25.52H63.5681V17.4452H66.4848ZM64.8222 24.3781H66.3447C66.7214 24.4006 67.0985 24.3388 67.4484 24.1972C67.7982 24.0557 68.1121 23.8378 68.3672 23.5597C68.6223 23.2815 68.8121 22.9499 68.9229 22.5891C69.0337 22.2283 69.0626 21.8473 69.0076 21.4739C69.0586 21.102 69.0268 20.7234 68.9143 20.3652C68.8018 20.0071 68.6115 19.6782 68.357 19.4022C68.1025 19.1263 67.7901 18.91 67.4422 18.7689C67.0943 18.6279 66.7195 18.5655 66.3447 18.5863H64.8222V24.3781Z" fill="white"/>
<path d="M71.701 22.4704C71.6626 22.0699 71.7085 21.6659 71.8354 21.2842C71.9624 20.9025 72.1678 20.5515 72.4384 20.2538C72.709 19.9561 73.0388 19.7182 73.4067 19.5555C73.7745 19.3927 74.1724 19.3086 74.5747 19.3086C74.977 19.3086 75.3748 19.3927 75.7427 19.5555C76.1106 19.7182 76.4404 19.9561 76.711 20.2538C76.9816 20.5515 77.1869 20.9025 77.3139 21.2842C77.4409 21.6659 77.4867 22.0699 77.4484 22.4704C77.4874 22.8713 77.4422 23.2759 77.3155 23.6582C77.1889 24.0405 76.9836 24.3921 76.713 24.6904C76.4423 24.9887 76.1123 25.2271 75.744 25.3902C75.3758 25.5533 74.9774 25.6376 74.5747 25.6376C74.1719 25.6376 73.7736 25.5533 73.4053 25.3902C73.0371 25.2271 72.707 24.9887 72.4364 24.6904C72.1657 24.3921 71.9605 24.0405 71.8338 23.6582C71.7072 23.2759 71.6619 22.8713 71.701 22.4704ZM76.2114 22.4704C76.2114 21.1495 75.618 20.3771 74.5767 20.3771C73.5313 20.3771 72.9433 21.1495 72.9433 22.4704C72.9433 23.8019 73.5314 24.5684 74.5767 24.5684C75.6181 24.5684 76.2114 23.7966 76.2114 22.4704Z" fill="white"/>
<path d="M85.0883 25.5199H83.8408L82.5813 21.0319H82.4862L81.232 25.5199H79.9964L78.3167 19.4262H79.5365L80.6281 24.076H80.718L81.9708 19.4262H83.1245L84.3773 24.076H84.4725L85.5588 19.4262H86.7614L85.0883 25.5199Z" fill="white"/>
<path d="M88.1742 19.4262H89.3318V20.3942H89.4217C89.5742 20.0465 89.8313 19.7551 90.1573 19.5605C90.4832 19.3659 90.8618 19.2778 91.2402 19.3085C91.5367 19.2863 91.8344 19.331 92.1113 19.4394C92.3882 19.5477 92.6371 19.717 92.8397 19.9347C93.0422 20.1524 93.1932 20.4128 93.2814 20.6968C93.3697 20.9807 93.3929 21.2809 93.3494 21.575V25.5198H92.1468V21.877C92.1468 20.8977 91.7212 20.4107 90.8318 20.4107C90.6305 20.4014 90.4295 20.4356 90.2427 20.5112C90.0559 20.5867 89.8876 20.7018 89.7494 20.8485C89.6112 20.9951 89.5063 21.17 89.442 21.3609C89.3777 21.5519 89.3555 21.7546 89.3768 21.955V25.5199H88.1742L88.1742 19.4262Z" fill="white"/>
<path d="M95.2656 17.0474H96.4683V25.5199H95.2656V17.0474Z" fill="white"/>
<path d="M98.14 22.4704C98.1017 22.0699 98.1476 21.6658 98.2746 21.2841C98.4016 20.9024 98.607 20.5514 98.8776 20.2537C99.1482 19.956 99.4781 19.7181 99.846 19.5554C100.214 19.3926 100.612 19.3085 101.014 19.3085C101.416 19.3085 101.814 19.3926 102.182 19.5554C102.55 19.7181 102.88 19.956 103.151 20.2537C103.421 20.5514 103.627 20.9024 103.754 21.2841C103.881 21.6658 103.926 22.0699 103.888 22.4704C103.927 22.8713 103.882 23.2759 103.755 23.6582C103.628 24.0406 103.423 24.3921 103.152 24.6904C102.882 24.9887 102.552 25.227 102.183 25.3902C101.815 25.5533 101.417 25.6375 101.014 25.6375C100.611 25.6375 100.213 25.5533 99.8447 25.3902C99.4764 25.227 99.1464 24.9887 98.8757 24.6904C98.605 24.3921 98.3997 24.0406 98.273 23.6582C98.1463 23.2759 98.101 22.8713 98.14 22.4704ZM102.65 22.4704C102.65 21.1495 102.057 20.3771 101.016 20.3771C99.9704 20.3771 99.3823 21.1495 99.3823 22.4704C99.3823 23.8019 99.9704 24.5684 101.016 24.5684C102.057 24.5684 102.65 23.7966 102.65 22.4704Z" fill="white"/>
<path d="M105.154 23.7966C105.154 22.6997 105.971 22.0673 107.421 21.9774L109.071 21.8823V21.3563C109.071 20.7127 108.646 20.3493 107.824 20.3493C107.152 20.3493 106.687 20.5958 106.554 21.0266H105.389C105.512 19.9799 106.497 19.3086 107.879 19.3086C109.407 19.3086 110.269 20.0691 110.269 21.3563V25.5199H109.111V24.6635H109.016C108.823 24.9707 108.551 25.2211 108.23 25.3892C107.908 25.5573 107.548 25.637 107.185 25.6203C106.93 25.6469 106.671 25.6196 106.426 25.5402C106.182 25.4607 105.957 25.3309 105.765 25.1591C105.574 24.9873 105.421 24.7773 105.315 24.5426C105.21 24.3079 105.155 24.0538 105.154 23.7966ZM109.071 23.2759V22.7664L107.583 22.8616C106.744 22.9177 106.363 23.2032 106.363 23.7404C106.363 24.2888 106.839 24.608 107.493 24.608C107.685 24.6274 107.879 24.608 108.063 24.5511C108.247 24.4941 108.418 24.4007 108.565 24.2764C108.712 24.1522 108.833 23.9995 108.92 23.8276C109.007 23.6557 109.058 23.4681 109.071 23.2759Z" fill="white"/>
<path d="M111.849 22.4704C111.849 20.5449 112.839 19.3251 114.379 19.3251C114.759 19.3075 115.137 19.3988 115.468 19.5881C115.799 19.7774 116.069 20.057 116.247 20.3942H116.337V17.0474H117.54V25.5199H116.387V24.5571H116.292C116.101 24.892 115.821 25.1681 115.484 25.3555C115.146 25.5429 114.764 25.6345 114.379 25.6203C112.828 25.6204 111.849 24.4005 111.849 22.4704ZM113.091 22.4704C113.091 23.7629 113.701 24.5406 114.72 24.5406C115.733 24.5406 116.36 23.7517 116.36 22.4757C116.36 21.2057 115.727 20.4055 114.72 20.4055C113.707 20.4055 113.091 21.1885 113.091 22.4704Z" fill="white"/>
<path d="M122.515 22.4704C122.477 22.0699 122.523 21.6659 122.65 21.2842C122.777 20.9025 122.982 20.5515 123.253 20.2538C123.523 19.9561 123.853 19.7182 124.221 19.5555C124.589 19.3927 124.987 19.3086 125.389 19.3086C125.792 19.3086 126.189 19.3927 126.557 19.5555C126.925 19.7182 127.255 19.9561 127.526 20.2538C127.796 20.5515 128.001 20.9025 128.128 21.2842C128.255 21.6659 128.301 22.0699 128.263 22.4704C128.302 22.8713 128.257 23.2759 128.13 23.6582C128.003 24.0405 127.798 24.3921 127.528 24.6904C127.257 24.9887 126.927 25.2271 126.559 25.3902C126.19 25.5533 125.792 25.6376 125.389 25.6376C124.986 25.6376 124.588 25.5533 124.22 25.3902C123.852 25.2271 123.522 24.9887 123.251 24.6904C122.98 24.3921 122.775 24.0405 122.648 23.6582C122.522 23.2759 122.476 22.8713 122.515 22.4704ZM127.026 22.4704C127.026 21.1495 126.433 20.3771 125.391 20.3771C124.346 20.3771 123.758 21.1495 123.758 22.4704C123.758 23.8019 124.346 24.5684 125.391 24.5684C126.433 24.5684 127.026 23.7966 127.026 22.4704Z" fill="white"/>
<path d="M129.877 19.4262H131.034V20.3942H131.124C131.277 20.0465 131.534 19.7551 131.86 19.5605C132.186 19.3659 132.564 19.2778 132.943 19.3085C133.239 19.2863 133.537 19.331 133.814 19.4394C134.091 19.5477 134.339 19.717 134.542 19.9347C134.745 20.1524 134.896 20.4128 134.984 20.6968C135.072 20.9807 135.095 21.2809 135.052 21.575V25.5198H133.849V21.877C133.849 20.8977 133.424 20.4107 132.534 20.4107C132.333 20.4014 132.132 20.4356 131.945 20.5112C131.758 20.5867 131.59 20.7018 131.452 20.8485C131.314 20.9951 131.209 21.17 131.144 21.3609C131.08 21.5519 131.058 21.7546 131.079 21.955V25.5199H129.877V19.4262Z" fill="white"/>
<path d="M141.847 17.909V19.4539H143.167V20.4669H141.847V23.6003C141.847 24.2386 142.11 24.5181 142.709 24.5181C142.862 24.5177 143.015 24.5084 143.167 24.4904V25.4921C142.952 25.5308 142.733 25.5513 142.513 25.5536C141.176 25.5536 140.643 25.0831 140.643 23.9082V20.4669H139.676V19.4539H140.643V17.909H141.847Z" fill="white"/>
<path d="M144.81 17.0474H146.002V20.4054H146.097C146.257 20.0545 146.521 19.7614 146.854 19.5661C147.186 19.3707 147.571 19.2826 147.955 19.3138C148.25 19.2978 148.545 19.347 148.819 19.4581C149.093 19.5691 149.339 19.7392 149.539 19.9561C149.739 20.1731 149.89 20.4317 149.979 20.7133C150.068 20.995 150.093 21.2928 150.054 21.5856V25.5199H148.85V21.8823C148.85 20.9089 148.397 20.416 147.547 20.416C147.34 20.399 147.133 20.4275 146.938 20.4993C146.743 20.5711 146.567 20.6845 146.421 20.8317C146.275 20.9788 146.162 21.1561 146.092 21.3512C146.021 21.5462 145.994 21.7543 146.013 21.9609V25.5198H144.81L144.81 17.0474Z" fill="white"/>
<path d="M157.066 23.8745C156.903 24.4315 156.549 24.9132 156.066 25.2355C155.583 25.5578 155.003 25.7001 154.426 25.6375C154.024 25.6481 153.625 25.5712 153.257 25.4121C152.888 25.2531 152.558 25.0157 152.29 24.7164C152.022 24.4172 151.823 24.0632 151.706 23.6791C151.588 23.295 151.556 22.89 151.611 22.4922C151.557 22.0931 151.59 21.6872 151.707 21.302C151.824 20.9168 152.023 20.5612 152.289 20.2593C152.556 19.9574 152.884 19.7163 153.252 19.5523C153.619 19.3882 154.018 19.3051 154.421 19.3086C156.116 19.3086 157.139 20.467 157.139 22.3805V22.8001H152.836V22.8675C152.817 23.0911 152.845 23.3162 152.918 23.5284C152.992 23.7405 153.108 23.935 153.261 24.0993C153.414 24.2637 153.6 24.3943 153.806 24.4828C154.012 24.5713 154.234 24.6157 154.459 24.6132C154.747 24.6478 155.038 24.596 155.296 24.4644C155.554 24.3329 155.767 24.1275 155.909 23.8745L157.066 23.8745ZM152.836 21.9107H155.914C155.929 21.7062 155.901 21.5008 155.832 21.3076C155.763 21.1145 155.655 20.9379 155.513 20.7892C155.372 20.6406 155.201 20.5231 155.012 20.4444C154.823 20.3657 154.619 20.3274 154.414 20.3321C154.206 20.3295 153.999 20.3686 153.807 20.447C153.614 20.5254 153.439 20.6416 153.292 20.7887C153.145 20.9358 153.029 21.1109 152.951 21.3036C152.872 21.4963 152.833 21.7027 152.836 21.9107Z" fill="white"/>
</svg>
