<svg width="195" height="68" viewBox="0 0 195 68" fill="none" xmlns="http://www.w3.org/2000/svg">
<rect x="0.459473" y="0.808105" width="193.816" height="66.3838" rx="10.3523" fill="#11202D"/>
<path d="M24.3008 18.9624C23.9149 19.4354 23.7201 20.0419 23.7562 20.6575V47.3425C23.72 47.9582 23.9148 48.5647 24.3008 49.0377L24.3878 49.1247L38.9652 34.1764V33.8237L24.3878 18.8748L24.3008 18.9624Z" fill="url(#paint0_linear_1_1073)"/>
<path d="M43.8254 39.1602L38.9666 34.1752V33.8226L43.8266 28.8389L43.9362 28.9029L49.6932 32.2574C51.3376 33.2154 51.3376 34.783 49.6932 35.7416L43.9362 39.0961L43.8254 39.1602Z" fill="url(#paint1_linear_1_1073)"/>
<path d="M43.9365 39.0965L38.967 34L24.3026 49.0376C24.6377 49.3406 25.0656 49.5139 25.5121 49.5275C25.9587 49.541 26.3958 49.3939 26.7478 49.1117L43.9365 39.0965Z" fill="url(#paint2_linear_1_1073)"/>
<path d="M43.9365 28.9033L26.7478 18.8881C26.3958 18.6059 25.9587 18.4588 25.5121 18.4723C25.0656 18.4858 24.6377 18.6591 24.3026 18.9622L38.967 33.9999L43.9365 28.9033Z" fill="url(#paint3_linear_1_1073)"/>
<path opacity="0.2" d="M43.827 38.9854L26.7478 48.9365C26.4094 49.2006 25.9964 49.3447 25.5711 49.3471C25.1459 49.3494 24.7314 49.2098 24.3903 48.9494L24.3026 49.0393L24.3897 49.1263L24.3903 49.1256C24.7313 49.3862 25.1458 49.5259 25.5711 49.5236C25.9964 49.5212 26.4095 49.377 26.7478 49.1127L43.9365 39.0976L43.827 38.9854Z" fill="#223544"/>
<path opacity="0.12" d="M24.3007 48.8616C23.915 48.3886 23.7201 47.7821 23.7562 47.1665V47.3428C23.7201 47.9584 23.9149 48.5648 24.3007 49.0379L24.3884 48.948L24.3007 48.8616Z" fill="#223544"/>
<path opacity="0.12" d="M49.6939 35.5653L43.8273 38.9838L43.9369 39.096L49.6939 35.7416C50.0326 35.5909 50.3256 35.3498 50.5425 35.0435C50.7595 34.7372 50.8924 34.3769 50.9274 34C50.8546 34.3413 50.7052 34.6605 50.4911 34.9322C50.277 35.2039 50.004 35.4207 49.6939 35.5653Z" fill="#223544"/>
<path opacity="0.25" d="M26.7461 19.0641L49.6918 32.4331C50.0021 32.5778 50.2751 32.7946 50.4892 33.0664C50.7034 33.3383 50.8527 33.6576 50.9253 33.9991C50.8906 33.622 50.7578 33.2615 50.5408 32.9551C50.3238 32.6486 50.0307 32.4075 49.6918 32.2569L26.7461 18.8878C25.1016 17.9297 23.7564 18.7256 23.7564 20.6571V20.8334C23.7564 18.902 25.1016 18.1061 26.7461 19.0641Z" fill="white"/>
<path d="M69.1301 20.7072C69.1536 21.182 69.0803 21.6567 68.9145 22.1022C68.7487 22.5478 68.494 22.955 68.1658 23.299C67.798 23.6804 67.3539 23.9799 66.8624 24.1779C66.3709 24.3758 65.8431 24.4678 65.3136 24.4477C64.7808 24.4525 64.2523 24.3507 63.7594 24.1483C63.2664 23.9459 62.8189 23.6471 62.4431 23.2692C62.0673 22.8914 61.7708 22.4423 61.5711 21.9483C61.3714 21.4543 61.2724 20.9253 61.28 20.3925C61.2725 19.8596 61.3715 19.3306 61.5712 18.8366C61.771 18.3426 62.0674 17.8934 62.4432 17.5156C62.819 17.1377 63.2665 16.8388 63.7594 16.6363C64.2523 16.4339 64.7808 16.332 65.3136 16.3366C65.8615 16.3349 66.4039 16.4457 66.9072 16.662C67.3747 16.8515 67.7908 17.1488 68.1217 17.5295L67.4392 18.2125C67.1791 17.9064 66.8522 17.6642 66.4837 17.5044C66.1151 17.3447 65.7148 17.2718 65.3136 17.2913C64.9098 17.2892 64.5097 17.3687 64.1373 17.5249C63.7649 17.6811 63.4278 17.9108 63.1463 18.2004C62.8648 18.4899 62.6446 18.8333 62.4989 19.21C62.3532 19.5867 62.2851 19.9888 62.2985 20.3925C62.2889 20.997 62.459 21.5908 62.7873 22.0986C63.1156 22.6064 63.5873 23.0052 64.1426 23.2445C64.6978 23.4838 65.3117 23.5529 65.9062 23.4429C66.5008 23.3329 67.0493 23.0489 67.4822 22.6267C67.8806 22.1974 68.1115 21.6393 68.1329 21.054H65.3136V20.1214H69.0758C69.1114 20.3146 69.1295 20.5107 69.1301 20.7072Z" fill="white"/>
<path d="M75.0947 17.4645H71.5589V19.9261H74.7473V20.8588H71.5589V23.3205H75.0947V24.2746H70.5618V16.5104H75.0947V17.4645Z" fill="white"/>
<path d="M79.3016 24.2746H78.3033V17.4645H76.1347V16.5104H81.4702V17.4645H79.3016V24.2746Z" fill="white"/>
<path d="M85.3308 24.2746V16.5104H86.3278V24.2746H85.3308Z" fill="white"/>
<path d="M90.7533 24.2746H89.7549V17.4645H87.5865V16.5104H92.9218V17.4645H90.7533V24.2746Z" fill="white"/>
<path d="M103.022 23.2712C102.266 24.0246 101.243 24.4477 100.176 24.4477C99.1084 24.4477 98.0848 24.0246 97.3291 23.2712C96.9552 22.8925 96.6613 22.4425 96.4648 21.948C96.2683 21.4535 96.1733 20.9245 96.1854 20.3925C96.1733 19.8605 96.2683 19.3315 96.4648 18.8369C96.6613 18.3424 96.9552 17.8924 97.3291 17.5138C97.7026 17.1401 98.1461 16.8438 98.6343 16.6418C99.1225 16.4398 99.6457 16.3361 100.174 16.3366C100.702 16.337 101.225 16.4417 101.713 16.6446C102.201 16.8474 102.644 17.1445 103.017 17.5188C103.391 17.8965 103.686 18.3454 103.883 18.8391C104.08 19.3327 104.176 19.861 104.166 20.3925C104.177 20.9244 104.082 21.4533 103.886 21.9478C103.689 22.4423 103.396 22.8923 103.022 23.2712ZM98.0657 22.621C98.6255 23.1798 99.384 23.4936 100.175 23.4936C100.966 23.4936 101.724 23.1798 102.284 22.621C102.571 22.3272 102.796 21.9782 102.944 21.5952C103.092 21.2121 103.161 20.803 103.147 20.3925C103.161 19.9819 103.092 19.5728 102.944 19.1898C102.796 18.8067 102.571 18.4577 102.284 18.1639C101.724 17.6051 100.966 17.2913 100.175 17.2913C99.384 17.2913 98.6255 17.6051 98.0657 18.1639C97.7791 18.458 97.555 18.807 97.4069 19.19C97.2588 19.573 97.1897 19.9821 97.2039 20.3925C97.1897 20.8029 97.2588 21.2119 97.4069 21.5949C97.555 21.9779 97.7791 22.327 98.0657 22.621Z" fill="white"/>
<path d="M105.566 24.2746V16.5104H106.78L110.554 22.5503H110.597L110.554 21.054V16.5104H111.552V24.2746H110.511L106.563 17.9421H106.52L106.563 19.4384V24.2746H105.566Z" fill="white"/>
<path d="M69.1301 20.7072C69.1536 21.182 69.0803 21.6567 68.9145 22.1022C68.7487 22.5478 68.494 22.955 68.1658 23.299C67.798 23.6804 67.3539 23.9799 66.8624 24.1779C66.3709 24.3758 65.8431 24.4678 65.3136 24.4477C64.7808 24.4525 64.2523 24.3507 63.7594 24.1483C63.2664 23.9459 62.8189 23.6471 62.4431 23.2692C62.0673 22.8914 61.7708 22.4423 61.5711 21.9483C61.3714 21.4543 61.2724 20.9253 61.28 20.3925C61.2725 19.8596 61.3715 19.3306 61.5712 18.8366C61.771 18.3426 62.0674 17.8934 62.4432 17.5156C62.819 17.1377 63.2665 16.8388 63.7594 16.6363C64.2523 16.4339 64.7808 16.332 65.3136 16.3366C65.8615 16.3349 66.4039 16.4457 66.9072 16.662C67.3747 16.8515 67.7908 17.1488 68.1217 17.5295L67.4392 18.2125C67.1791 17.9064 66.8522 17.6642 66.4837 17.5044C66.1151 17.3447 65.7148 17.2718 65.3136 17.2913C64.9098 17.2892 64.5097 17.3687 64.1373 17.5249C63.7649 17.6811 63.4278 17.9108 63.1463 18.2004C62.8648 18.4899 62.6446 18.8333 62.4989 19.21C62.3532 19.5867 62.2851 19.9888 62.2985 20.3925C62.2889 20.997 62.459 21.5908 62.7873 22.0986C63.1156 22.6064 63.5873 23.0052 64.1426 23.2445C64.6978 23.4838 65.3117 23.5529 65.9062 23.4429C66.5008 23.3329 67.0493 23.0489 67.4822 22.6267C67.8806 22.1974 68.1115 21.6393 68.1329 21.054H65.3136V20.1214H69.0758C69.1114 20.3146 69.1295 20.5107 69.1301 20.7072Z" stroke="white" stroke-width="0.258807" stroke-miterlimit="10"/>
<path d="M75.0947 17.4645H71.5589V19.9261H74.7473V20.8588H71.5589V23.3205H75.0947V24.2746H70.5618V16.5104H75.0947V17.4645Z" stroke="white" stroke-width="0.258807" stroke-miterlimit="10"/>
<path d="M79.3016 24.2746H78.3033V17.4645H76.1347V16.5104H81.4702V17.4645H79.3016V24.2746Z" stroke="white" stroke-width="0.258807" stroke-miterlimit="10"/>
<path d="M85.3308 24.2746V16.5104H86.3278V24.2746H85.3308Z" stroke="white" stroke-width="0.258807" stroke-miterlimit="10"/>
<path d="M90.7533 24.2746H89.7549V17.4645H87.5865V16.5104H92.9218V17.4645H90.7533V24.2746Z" stroke="white" stroke-width="0.258807" stroke-miterlimit="10"/>
<path d="M103.022 23.2712C102.266 24.0246 101.243 24.4477 100.176 24.4477C99.1084 24.4477 98.0848 24.0246 97.3291 23.2712C96.9552 22.8925 96.6613 22.4425 96.4648 21.948C96.2683 21.4535 96.1733 20.9245 96.1854 20.3925C96.1733 19.8605 96.2683 19.3315 96.4648 18.8369C96.6613 18.3424 96.9552 17.8924 97.3291 17.5138C97.7026 17.1401 98.1461 16.8438 98.6343 16.6418C99.1225 16.4398 99.6457 16.3361 100.174 16.3366C100.702 16.337 101.225 16.4417 101.713 16.6446C102.201 16.8474 102.644 17.1445 103.017 17.5188C103.391 17.8965 103.686 18.3454 103.883 18.8391C104.08 19.3327 104.176 19.861 104.166 20.3925C104.177 20.9244 104.082 21.4533 103.886 21.9478C103.689 22.4423 103.396 22.8923 103.022 23.2712ZM98.0657 22.621C98.6255 23.1798 99.384 23.4936 100.175 23.4936C100.966 23.4936 101.724 23.1798 102.284 22.621C102.571 22.3272 102.796 21.9782 102.944 21.5952C103.092 21.2121 103.161 20.803 103.147 20.3925C103.161 19.9819 103.092 19.5728 102.944 19.1898C102.796 18.8067 102.571 18.4577 102.284 18.1639C101.724 17.6051 100.966 17.2913 100.175 17.2913C99.384 17.2913 98.6255 17.6051 98.0657 18.1639C97.7791 18.458 97.555 18.807 97.4069 19.19C97.2588 19.573 97.1897 19.9821 97.2039 20.3925C97.1897 20.8029 97.2588 21.2119 97.4069 21.5949C97.555 21.9779 97.7791 22.327 98.0657 22.621Z" stroke="white" stroke-width="0.258807" stroke-miterlimit="10"/>
<path d="M105.566 24.2746V16.5104H106.78L110.554 22.5503H110.597L110.554 21.054V16.5104H111.552V24.2746H110.511L106.563 17.9421H106.52L106.563 19.4384V24.2746H105.566Z" stroke="white" stroke-width="0.258807" stroke-miterlimit="10"/>
<path d="M96.3405 35.715C95.2529 35.7191 94.1909 36.0454 93.2885 36.6527C92.3862 37.2599 91.684 38.1209 91.2706 39.127C90.8573 40.133 90.7512 41.239 90.966 42.3052C91.1807 43.3715 91.7065 44.3502 92.4771 45.1178C93.2476 45.8855 94.2283 46.4076 95.2954 46.6182C96.3624 46.8289 97.468 46.7187 98.4725 46.3015C99.4769 45.8843 100.335 45.1789 100.939 44.2742C101.543 43.3696 101.865 42.3063 101.865 41.2186C101.876 40.4912 101.74 39.769 101.466 39.095C101.192 38.4211 100.785 37.8092 100.27 37.2957C99.7541 36.7822 99.1406 36.3776 98.4657 36.1061C97.7907 35.8345 97.068 35.7015 96.3405 35.715ZM96.3405 44.5543C95.6707 44.602 95.002 44.447 94.4215 44.1094C93.841 43.7718 93.3756 43.2673 93.0859 42.6615C92.7962 42.0557 92.6956 41.3766 92.7972 40.7129C92.8987 40.0491 93.1978 39.4312 93.6555 38.9398C94.1131 38.4483 94.7081 38.1061 95.363 37.9575C96.0179 37.809 96.7023 37.861 97.3272 38.1069C97.9521 38.3528 98.4884 38.7811 98.8665 39.3361C99.2445 39.8912 99.4467 40.5471 99.4467 41.2186C99.4671 41.6429 99.4023 42.0669 99.2563 42.4657C99.1103 42.8646 98.8859 43.2301 98.5965 43.541C98.307 43.8518 97.9584 44.1016 97.5709 44.2756C97.1835 44.4496 96.7651 44.5444 96.3405 44.5543ZM84.2887 35.715C83.201 35.7191 82.139 36.0454 81.2366 36.6526C80.3343 37.2599 79.6321 38.1209 79.2187 39.1269C78.8053 40.1329 78.6993 41.2389 78.914 42.3052C79.1287 43.3714 79.6545 44.3502 80.425 45.1178C81.1956 45.8854 82.1763 46.4075 83.2434 46.6182C84.3104 46.8289 85.416 46.7187 86.4205 46.3015C87.4249 45.8843 88.2833 45.1789 88.8871 44.2742C89.4909 43.3696 89.8132 42.3063 89.8132 41.2186C89.8239 40.4912 89.6881 39.769 89.414 39.0951C89.1399 38.4211 88.733 37.8092 88.2176 37.2957C87.7022 36.7822 87.0887 36.3777 86.4138 36.1061C85.7388 35.8346 85.0161 35.7015 84.2887 35.715ZM84.2887 44.5543C83.6189 44.602 82.9502 44.447 82.3697 44.1094C81.7892 43.7718 81.3238 43.2673 81.0341 42.6615C80.7444 42.0557 80.6437 41.3766 80.7453 40.7129C80.8469 40.0491 81.146 39.4312 81.6036 38.9398C82.0612 38.4483 82.6562 38.1061 83.3111 37.9575C83.966 37.809 84.6505 37.861 85.2753 38.1069C85.9002 38.3528 86.4366 38.7811 86.8146 39.3361C87.1927 39.8912 87.3949 40.5471 87.3949 41.2186C87.4152 41.6429 87.3505 42.0669 87.2045 42.4657C87.0585 42.8646 86.8341 43.2302 86.5447 43.541C86.2552 43.8518 85.9065 44.1016 85.5191 44.2756C85.1316 44.4496 84.7133 44.5444 84.2887 44.5543ZM69.9524 37.4037V39.7385H75.5396C75.459 40.8337 75.0108 41.8695 74.2678 42.678C73.7079 43.2488 73.0346 43.6957 72.2913 43.9902C71.548 44.2846 70.7512 44.42 69.9524 44.3875C68.3193 44.3654 66.7606 43.7011 65.6135 42.5384C64.4665 41.3758 63.8234 39.8082 63.8234 38.1749C63.8234 36.5417 64.4665 34.9741 65.6135 33.8115C66.7606 32.6488 68.3193 31.9845 69.9524 31.9624C71.521 31.9419 73.0344 32.5412 74.1637 33.6302L75.8106 31.9833C75.0401 31.2204 74.125 30.6191 73.119 30.2146C72.1131 29.8101 71.0365 29.6105 69.9524 29.6275C68.8194 29.611 67.6945 29.8199 66.643 30.242C65.5915 30.6642 64.6345 31.2911 63.8275 32.0865C63.0205 32.8818 62.3796 33.8297 61.9422 34.8749C61.5048 35.9201 61.2795 37.0419 61.2795 38.1749C61.2795 39.308 61.5048 40.4298 61.9422 41.475C62.3796 42.5202 63.0205 43.4681 63.8275 44.2634C64.6345 45.0587 65.5915 45.6857 66.643 46.1079C67.6945 46.53 68.8194 46.7389 69.9524 46.7224C71.0594 46.7683 72.1635 46.5783 73.1914 46.165C74.2194 45.7516 75.1477 45.1244 75.9147 44.325C77.2766 42.8385 78.0025 40.8779 77.9371 38.863C77.9424 38.3737 77.9004 37.885 77.8118 37.4037H69.9524ZM128.583 39.2173C128.252 38.2204 127.622 37.3495 126.779 36.7229C125.937 36.0963 124.921 35.7444 123.871 35.715C123.164 35.7194 122.465 35.8671 121.817 36.1493C121.168 36.4314 120.584 36.8421 120.099 37.3566C119.613 37.871 119.238 38.4785 118.994 39.1423C118.75 39.8061 118.643 40.5124 118.68 41.2186C118.664 41.9422 118.794 42.6616 119.063 43.3338C119.331 44.006 119.732 44.6172 120.242 45.131C120.752 45.6447 121.36 46.0504 122.03 46.3238C122.7 46.5973 123.419 46.7328 124.142 46.7224C125.049 46.7274 125.943 46.5072 126.743 46.0815C127.544 45.6557 128.226 45.0378 128.729 44.2833L126.852 43.0325C126.571 43.4993 126.174 43.885 125.699 44.1518C125.224 44.4186 124.687 44.5573 124.142 44.5543C123.582 44.5757 123.027 44.4282 122.552 44.1308C122.076 43.8334 121.7 43.3999 121.474 42.8865L128.833 39.8428L128.583 39.2173ZM121.078 41.052C121.052 40.6514 121.106 40.2497 121.237 39.8703C121.369 39.4909 121.574 39.1416 121.842 38.8426C122.11 38.5436 122.435 38.3011 122.797 38.1292C123.16 37.9573 123.554 37.8595 123.955 37.8415C124.372 37.814 124.789 37.9101 125.152 38.1177C125.515 38.3253 125.809 38.6353 125.998 39.0089L121.078 41.052ZM115.094 46.3888H117.513V30.2113H115.094V46.3888ZM111.133 36.945H111.05C110.682 36.5455 110.234 36.2292 109.734 36.017C109.234 35.8049 108.695 35.7019 108.152 35.715C106.733 35.7754 105.392 36.3816 104.409 37.4072C103.426 38.4327 102.878 39.7983 102.878 41.2187C102.878 42.6391 103.426 44.0047 104.409 45.0302C105.392 46.0558 106.733 46.662 108.152 46.7224C108.697 46.7369 109.239 46.6325 109.739 46.4165C110.24 46.2005 110.687 45.8781 111.05 45.4716H111.133V46.2638C111.133 48.3695 110.008 49.4951 108.194 49.4951C107.589 49.4807 107.003 49.2866 106.509 48.9376C106.015 48.5886 105.637 48.1005 105.421 47.5355L103.316 48.4111C103.712 49.3773 104.389 50.2031 105.258 50.7825C106.127 51.3619 107.149 51.6686 108.194 51.6633C111.029 51.6633 113.427 49.9955 113.427 45.9302V36.0485H111.133V36.945ZM108.361 44.5543C107.525 44.4834 106.746 44.1013 106.179 43.4836C105.611 42.8658 105.296 42.0576 105.296 41.2187C105.296 40.3798 105.611 39.5716 106.179 38.9538C106.746 38.3361 107.525 37.954 108.361 37.8831C108.777 37.9034 109.184 38.0073 109.559 38.1884C109.934 38.3696 110.268 38.6243 110.543 38.9375C110.817 39.2508 111.025 39.616 111.156 40.0115C111.286 40.4069 111.335 40.8246 111.3 41.2395C111.333 41.6518 111.282 42.0664 111.15 42.4586C111.019 42.8508 110.81 43.2124 110.535 43.5218C110.261 43.8313 109.927 44.0822 109.553 44.2596C109.18 44.437 108.774 44.5372 108.361 44.5543ZM139.911 30.2116H134.125V46.3888H136.539V40.2598H139.911C140.594 40.2972 141.277 40.195 141.919 39.9594C142.561 39.7239 143.149 39.3599 143.645 38.8897C144.142 38.4194 144.538 37.8529 144.808 37.2247C145.078 36.5964 145.218 35.9196 145.218 35.2357C145.218 34.5517 145.078 33.8749 144.808 33.2467C144.538 32.6184 144.142 32.0519 143.645 31.5817C143.149 31.1115 142.561 30.7475 141.919 30.5119C141.277 30.2763 140.594 30.1742 139.911 30.2116ZM139.973 38.0084H136.539V32.4631H139.973C140.342 32.4554 140.709 32.5215 141.052 32.6574C141.395 32.7933 141.707 32.9963 141.971 33.2545C142.235 33.5128 142.444 33.821 142.587 34.1612C142.73 34.5014 142.804 34.8667 142.804 35.2357C142.804 35.6048 142.73 35.9701 142.587 36.3103C142.444 36.6505 142.235 36.9587 141.971 37.2169C141.707 37.4752 141.395 37.6782 141.052 37.8141C140.709 37.95 140.342 38.016 139.973 38.0084ZM154.895 35.6852C154.014 35.6338 153.137 35.8407 152.372 36.2807C151.606 36.7206 150.986 37.3744 150.587 38.1619L152.731 39.0568C152.943 38.666 153.265 38.3456 153.657 38.1349C154.049 37.9242 154.494 37.8323 154.937 37.8705C155.549 37.8107 156.161 37.9962 156.637 38.3863C157.113 38.7764 157.414 39.3393 157.476 39.9516V40.1182C156.701 39.7063 155.836 39.4918 154.958 39.4938C152.648 39.4938 150.296 40.7634 150.296 43.136C150.318 43.636 150.441 44.1265 150.657 44.5782C150.872 45.0299 151.176 45.4337 151.551 45.7656C151.926 46.0975 152.363 46.3508 152.837 46.5105C153.312 46.6701 153.813 46.7328 154.313 46.6949C154.921 46.7306 155.527 46.6028 156.069 46.3246C156.61 46.0464 157.068 45.6281 157.393 45.1132H157.476V46.3619H159.807V40.1599C159.807 37.2878 157.663 35.6852 154.895 35.6852ZM154.604 44.5512C153.813 44.5512 152.71 44.1558 152.71 43.1775C152.71 41.9289 154.084 41.4501 155.27 41.4501C156.041 41.4296 156.802 41.6165 157.476 41.9913C157.387 42.693 157.048 43.3388 156.52 43.8094C155.992 44.28 155.311 44.5435 154.604 44.5512ZM168.298 36.039L165.53 43.0527H165.447L162.575 36.039H159.974L164.282 45.8416L161.826 51.2944H164.344L170.983 36.039H168.298ZM146.55 46.3888H148.964V30.2116H146.55V46.3888Z" fill="white"/>
<defs>
<linearGradient id="paint0_linear_1_1073" x1="37.6724" y1="20.3761" x2="17.4294" y2="40.1166" gradientUnits="userSpaceOnUse">
<stop stop-color="#00A0FF"/>
<stop offset="0.00657" stop-color="#00A1FF"/>
<stop offset="0.2601" stop-color="#00BEFF"/>
<stop offset="0.5122" stop-color="#00D2FF"/>
<stop offset="0.7604" stop-color="#00DFFF"/>
<stop offset="1" stop-color="#00E3FF"/>
</linearGradient>
<linearGradient id="paint1_linear_1_1073" x1="51.8343" y1="33.9995" x2="23.3634" y2="33.9995" gradientUnits="userSpaceOnUse">
<stop stop-color="#FFE000"/>
<stop offset="0.4087" stop-color="#FFBD00"/>
<stop offset="0.7754" stop-color="#FFA500"/>
<stop offset="1" stop-color="#FF9C00"/>
</linearGradient>
<linearGradient id="paint2_linear_1_1073" x1="41.2362" y1="36.7692" x2="13.785" y2="63.5389" gradientUnits="userSpaceOnUse">
<stop stop-color="#FF3A44"/>
<stop offset="1" stop-color="#C31162"/>
</linearGradient>
<linearGradient id="paint3_linear_1_1073" x1="20.6103" y1="10.0795" x2="32.8684" y2="22.0333" gradientUnits="userSpaceOnUse">
<stop stop-color="#32A071"/>
<stop offset="0.0685" stop-color="#2DA771"/>
<stop offset="0.4762" stop-color="#15CF74"/>
<stop offset="0.8009" stop-color="#06E775"/>
<stop offset="1" stop-color="#00F076"/>
</linearGradient>
</defs>
</svg>
