<svg width="20" height="20" viewBox="0 0 20 20" fill="none" xmlns="http://www.w3.org/2000/svg">
<path d="M9.99998 13.6458C11.6108 13.6458 12.9166 12.34 12.9166 10.7292C12.9166 9.11834 11.6108 7.8125 9.99998 7.8125C8.38915 7.8125 7.08331 9.11834 7.08331 10.7292C7.08331 12.34 8.38915 13.6458 9.99998 13.6458Z" stroke="#B2B2B2" stroke-width="1.5" stroke-linecap="round" stroke-linejoin="round"/>
<path d="M5.62473 15.8328C6.1342 15.1537 6.79477 14.6025 7.55415 14.2228C8.31353 13.8432 9.15086 13.6455 9.99986 13.6455C10.8488 13.6455 11.6862 13.8431 12.4456 14.2227C13.205 14.6023 13.8656 15.1535 14.3751 15.8326" stroke="#B2B2B2" stroke-width="1.5" stroke-linecap="round" stroke-linejoin="round"/>
<path d="M17.2916 18.0208V1.97917C17.2916 1.57646 16.9651 1.25 16.5624 1.25L3.43743 1.25C3.03472 1.25 2.70826 1.57646 2.70826 1.97917L2.70826 18.0208C2.70826 18.4235 3.03472 18.75 3.43743 18.75H16.5624C16.9651 18.75 17.2916 18.4235 17.2916 18.0208Z" stroke="#B2B2B2" stroke-width="1.5" stroke-linecap="round" stroke-linejoin="round"/>
<path d="M7.08331 4.16699H12.9166" stroke="#B2B2B2" stroke-width="1.5" stroke-linecap="round" stroke-linejoin="round"/>
</svg>
