<svg width="122" height="153" viewBox="0 0 122 153" fill="none" xmlns="http://www.w3.org/2000/svg">
<g clip-path="url(#clip0_1_1097)">
<path d="M18.4642 0.0373535H3.2167C1.89392 0.0373535 0.821594 1.10968 0.821594 2.43246V17.6799" stroke="#828282" stroke-width="3.20774" stroke-linecap="round"/>
<path d="M104.105 0.0373535H118.796C120.119 0.0373535 121.191 1.10968 121.191 2.43246V17.6799" stroke="#828282" stroke-width="3.20774" stroke-linecap="round"/>
<path d="M121.213 103.32L121.194 118.571C121.192 119.892 120.12 120.963 118.799 120.963H104.105" stroke="#828282" stroke-width="3.20774" stroke-linecap="round"/>
<path d="M18.4642 120.963H3.2167C1.89392 120.963 0.821594 119.89 0.821594 118.568V103.32" stroke="#828282" stroke-width="3.20774" stroke-linecap="round"/>
<g clip-path="url(#clip1_1_1097)">
<path d="M28.1665 17.313H17.3536V28.126H28.1665V17.313Z" fill="#B2B2B2"/>
<path d="M82.2315 6.5V11.9065H76.825V17.313H82.2315V38.939H87.638V44.3455H82.2315V49.752H87.638H93.0445V38.939H109.264V44.3455H114.671V38.939V6.5H82.2315ZM109.264 33.5325H87.638V11.9065H109.264V33.5325Z" fill="#B2B2B2"/>
<path d="M103.858 17.313H93.0445V28.126H103.858V17.313Z" fill="#B2B2B2"/>
<path d="M28.1665 93.0039H17.3536V103.817H28.1665V93.0039Z" fill="#B2B2B2"/>
<path d="M87.638 82.1909H82.2315V87.5974H87.638V82.1909Z" fill="#B2B2B2"/>
<path d="M60.6056 109.223H55.1991V114.63H60.6056V109.223Z" fill="#B2B2B2"/>
<path d="M66.012 87.5974H60.6055V93.0039H66.012V87.5974Z" fill="#B2B2B2"/>
<path d="M66.012 98.4104H60.6055V103.817H66.012V98.4104Z" fill="#B2B2B2"/>
<path d="M114.671 71.3779H109.264V76.7844H114.671V71.3779Z" fill="#B2B2B2"/>
<path d="M11.9471 71.3779H6.54059V76.7844H11.9471V71.3779Z" fill="#B2B2B2"/>
<path d="M11.9471 44.3455H6.54059V49.752H11.9471V44.3455Z" fill="#B2B2B2"/>
<path d="M66.0121 11.9065V17.313H55.1991V22.7195H71.4186V17.313V11.9065H66.0121Z" fill="#B2B2B2"/>
<path d="M109.264 49.752V55.1584H98.451V60.5649H82.2315V55.1584H76.825V60.5649H66.012V65.9714H82.2315V71.3779H71.4185H66.012V65.9714H60.6055V71.3779H55.199V65.9714H49.7925V71.3779H44.386V76.7844H55.199V82.1909H60.6055V76.7844H71.4185V82.1909H66.012V87.5974H71.4185V98.4104H76.825V103.817H82.2315V98.4104H98.451V87.5974H103.857V82.1909H98.451V71.3779H87.638V65.9714H98.451V71.3779H103.857V65.9714H109.264V60.5649H114.67V55.1584V49.752H109.264ZM93.0445 76.7844V93.0039H76.825V76.7844H93.0445Z" fill="#B2B2B2"/>
<path d="M76.8251 38.939H71.4186V44.3455H66.0121V49.752V55.1584H71.4186V49.752H76.8251V44.3455H82.2316V38.939H76.8251Z" fill="#B2B2B2"/>
<path d="M76.8251 109.223H66.0121V114.63H76.8251V109.223Z" fill="#B2B2B2"/>
<path d="M55.1991 11.9065H49.7926V17.313H55.1991V11.9065Z" fill="#B2B2B2"/>
<path d="M98.451 49.752H93.0445V55.1584H98.451V49.752Z" fill="#B2B2B2"/>
<path d="M103.857 44.3455H98.451V49.752H103.857V44.3455Z" fill="#B2B2B2"/>
<path d="M33.573 71.3779H28.1665V76.7844H33.573V71.3779Z" fill="#B2B2B2"/>
<path d="M38.9796 109.223V87.5974H44.3861V82.1909V76.7844H38.9796V82.1909H22.7601V76.7844H17.3536H11.9471V82.1909H6.54059V114.63H38.9796H49.7925V109.223H38.9796ZM33.5731 109.223H11.9471V87.5974H33.5731V109.223Z" fill="#B2B2B2"/>
<path d="M44.3861 38.939H38.9796V44.3455H44.3861V38.939Z" fill="#B2B2B2"/>
<path d="M44.3861 6.5H38.9796H6.54059V38.939H11.9471V44.3455H17.3536V38.939H22.7601V44.3455H28.1666V38.939H38.9796V28.126H44.3861V22.7195H38.9796V11.9065H44.3861H49.7925V6.5H44.3861ZM33.5731 33.5325H11.9471V11.9065H33.5731V33.5325Z" fill="#B2B2B2"/>
<path d="M76.825 22.7195H71.4185V28.126H76.825V22.7195Z" fill="#B2B2B2"/>
<path d="M66.012 6.5H60.6055V11.9065H66.012V6.5Z" fill="#B2B2B2"/>
<path d="M71.4185 38.939V33.5325H66.012V28.126H60.6055V33.5325H49.7926V28.126H44.3861V33.5325V38.939H49.7926V49.752H33.5731V44.3455H28.1666V49.752H11.9471V55.1584H22.7601V60.5649H6.54059V65.9714H22.7601V71.3779H28.1666V65.9714H33.5731V71.3779H38.9796V65.9714H49.7926V60.5649H44.3861V55.1584H49.7926H55.199V60.5649H60.6055H66.012V55.1584H60.6055V49.752H55.199V38.939H71.4185ZM38.9796 60.5649H28.1666V55.1584H38.9796V60.5649Z" fill="#B2B2B2"/>
<path d="M55.199 93.0039V87.5974V82.1909H49.7925V87.5974H44.386V93.0039H49.7925V98.4104H44.386V103.817H55.199V98.4104H60.6055V93.0039H55.199Z" fill="#B2B2B2"/>
<path d="M103.857 103.817V98.4104H98.451V103.817H82.2315V109.223H93.0445V114.63H98.451V109.223H109.264V114.63H114.67V109.223V103.817H103.857Z" fill="#B2B2B2"/>
<path d="M109.264 82.1909V87.5974H103.858V93.0039H114.671V87.5974V82.1909H109.264Z" fill="#B2B2B2"/>
</g>
</g>
<path d="M8.85741 148.155C8.85741 148.592 8.93207 148.965 9.08141 149.275C9.23074 149.584 9.43874 149.84 9.70541 150.043C9.97207 150.235 10.2761 150.379 10.6174 150.475C10.9694 150.56 11.3481 150.603 11.7534 150.603C12.1907 150.603 12.5641 150.555 12.8734 150.459C13.1827 150.352 13.4334 150.219 13.6254 150.059C13.8174 149.899 13.9561 149.717 14.0414 149.515C14.1267 149.301 14.1694 149.088 14.1694 148.875C14.1694 148.437 14.0681 148.117 13.8654 147.915C13.6734 147.701 13.4601 147.552 13.2254 147.467C12.8201 147.317 12.3454 147.179 11.8014 147.051C11.2681 146.912 10.6067 146.736 9.81741 146.523C9.32674 146.395 8.91607 146.229 8.58541 146.027C8.26541 145.813 8.00941 145.579 7.81741 145.323C7.62541 145.067 7.48674 144.795 7.40141 144.507C7.32674 144.219 7.28941 143.925 7.28941 143.627C7.28941 143.051 7.40674 142.555 7.64141 142.139C7.88674 141.712 8.20674 141.36 8.60141 141.083C8.99607 140.805 9.44407 140.603 9.94541 140.475C10.4467 140.336 10.9534 140.267 11.4654 140.267C12.0627 140.267 12.6227 140.347 13.1454 140.507C13.6787 140.656 14.1427 140.885 14.5374 141.195C14.9427 141.504 15.2627 141.888 15.4974 142.347C15.7321 142.795 15.8494 143.317 15.8494 143.915H13.8494C13.7961 143.179 13.5454 142.661 13.0974 142.363C12.6494 142.053 12.0787 141.899 11.3854 141.899C11.1507 141.899 10.9107 141.925 10.6654 141.979C10.4201 142.021 10.1961 142.101 9.99341 142.219C9.79074 142.325 9.62007 142.475 9.48141 142.667C9.35341 142.859 9.28941 143.099 9.28941 143.387C9.28941 143.792 9.41207 144.112 9.65741 144.347C9.91341 144.571 10.2441 144.741 10.6494 144.859C10.6921 144.869 10.8574 144.917 11.1454 145.003C11.4441 145.077 11.7747 145.163 12.1374 145.259C12.5001 145.355 12.8521 145.451 13.1934 145.547C13.5454 145.632 13.7961 145.696 13.9454 145.739C14.3187 145.856 14.6441 146.016 14.9214 146.219C15.1987 146.421 15.4281 146.656 15.6094 146.923C15.8014 147.179 15.9401 147.456 16.0254 147.755C16.1214 148.053 16.1694 148.352 16.1694 148.651C16.1694 149.291 16.0361 149.84 15.7694 150.299C15.5134 150.747 15.1721 151.115 14.7454 151.403C14.3187 151.691 13.8334 151.899 13.2894 152.027C12.7454 152.165 12.1907 152.235 11.6254 152.235C10.9747 152.235 10.3614 152.155 9.78541 151.995C9.20941 151.835 8.70807 151.589 8.28141 151.259C7.85474 150.928 7.51341 150.507 7.25741 149.995C7.00141 149.472 6.86807 148.859 6.85741 148.155H8.85741ZM23.2484 146.459C23.1737 145.947 22.9657 145.563 22.6244 145.307C22.2937 145.04 21.8724 144.907 21.3604 144.907C21.1257 144.907 20.8751 144.949 20.6084 145.035C20.3417 145.109 20.0964 145.259 19.8724 145.483C19.6484 145.696 19.4617 146 19.3124 146.395C19.1631 146.779 19.0884 147.285 19.0884 147.915C19.0884 148.256 19.1257 148.597 19.2004 148.939C19.2857 149.28 19.4137 149.584 19.5844 149.851C19.7657 150.117 19.9951 150.336 20.2724 150.507C20.5497 150.667 20.8857 150.747 21.2804 150.747C21.8137 150.747 22.2511 150.581 22.5924 150.251C22.9444 149.92 23.1631 149.456 23.2484 148.859H25.0724C24.9017 149.936 24.4911 150.763 23.8404 151.339C23.2004 151.904 22.3471 152.187 21.2804 152.187C20.6297 152.187 20.0537 152.08 19.5524 151.867C19.0617 151.643 18.6457 151.344 18.3044 150.971C17.9631 150.587 17.7017 150.133 17.5204 149.611C17.3497 149.088 17.2644 148.523 17.2644 147.915C17.2644 147.296 17.3497 146.715 17.5204 146.171C17.6911 145.627 17.9471 145.157 18.2884 144.763C18.6297 144.357 19.0511 144.043 19.5524 143.819C20.0644 143.584 20.6617 143.467 21.3444 143.467C21.8244 143.467 22.2777 143.531 22.7044 143.659C23.1417 143.776 23.5257 143.957 23.8564 144.203C24.1977 144.448 24.4751 144.757 24.6884 145.131C24.9017 145.504 25.0297 145.947 25.0724 146.459H23.2484ZM33.483 150.123C33.483 150.347 33.5097 150.507 33.563 150.603C33.627 150.699 33.7444 150.747 33.915 150.747C33.9684 150.747 34.0324 150.747 34.107 150.747C34.1817 150.747 34.267 150.736 34.363 150.715V151.979C34.299 152 34.2137 152.021 34.107 152.043C34.011 152.075 33.9097 152.101 33.803 152.123C33.6964 152.144 33.5897 152.16 33.483 152.171C33.3764 152.181 33.2857 152.187 33.211 152.187C32.8377 152.187 32.5284 152.112 32.283 151.963C32.0377 151.813 31.8777 151.552 31.803 151.179C31.4404 151.531 30.9924 151.787 30.459 151.947C29.9364 152.107 29.4297 152.187 28.939 152.187C28.5657 152.187 28.2084 152.133 27.867 152.027C27.5257 151.931 27.2217 151.787 26.955 151.595C26.699 151.392 26.491 151.141 26.331 150.843C26.1817 150.533 26.107 150.176 26.107 149.771C26.107 149.259 26.1977 148.843 26.379 148.523C26.571 148.203 26.8164 147.952 27.115 147.771C27.4244 147.589 27.7657 147.461 28.139 147.387C28.523 147.301 28.907 147.237 29.291 147.195C29.6217 147.131 29.9364 147.088 30.235 147.067C30.5337 147.035 30.795 146.987 31.019 146.923C31.2537 146.859 31.435 146.763 31.563 146.635C31.7017 146.496 31.771 146.293 31.771 146.027C31.771 145.792 31.7124 145.6 31.595 145.451C31.4884 145.301 31.3497 145.189 31.179 145.115C31.019 145.029 30.8377 144.976 30.635 144.955C30.4324 144.923 30.2404 144.907 30.059 144.907C29.547 144.907 29.1257 145.013 28.795 145.227C28.4644 145.44 28.2777 145.771 28.235 146.219H26.411C26.443 145.685 26.571 145.243 26.795 144.891C27.019 144.539 27.3017 144.256 27.643 144.043C27.995 143.829 28.3897 143.68 28.827 143.595C29.2644 143.509 29.7124 143.467 30.171 143.467C30.5764 143.467 30.9764 143.509 31.371 143.595C31.7657 143.68 32.1177 143.819 32.427 144.011C32.747 144.203 33.003 144.453 33.195 144.763C33.387 145.061 33.483 145.429 33.483 145.867V150.123ZM31.659 147.819C31.3817 148 31.0404 148.112 30.635 148.155C30.2297 148.187 29.8244 148.24 29.419 148.315C29.227 148.347 29.0404 148.395 28.859 148.459C28.6777 148.512 28.5177 148.592 28.379 148.699C28.2404 148.795 28.1284 148.928 28.043 149.099C27.9684 149.259 27.931 149.456 27.931 149.691C27.931 149.893 27.9897 150.064 28.107 150.203C28.2244 150.341 28.363 150.453 28.523 150.539C28.6937 150.613 28.875 150.667 29.067 150.699C29.2697 150.731 29.451 150.747 29.611 150.747C29.8137 150.747 30.0324 150.72 30.267 150.667C30.5017 150.613 30.7204 150.523 30.923 150.395C31.1364 150.267 31.3124 150.107 31.451 149.915C31.5897 149.712 31.659 149.467 31.659 149.179V147.819ZM35.4457 143.691H37.1737V144.907L37.2057 144.939C37.483 144.48 37.8457 144.123 38.2937 143.867C38.7417 143.6 39.2377 143.467 39.7817 143.467C40.6883 143.467 41.403 143.701 41.9257 144.171C42.4483 144.64 42.7097 145.344 42.7097 146.283V151.963H40.8857V146.763C40.8643 146.112 40.7257 145.643 40.4697 145.355C40.2137 145.056 39.8137 144.907 39.2697 144.907C38.9603 144.907 38.683 144.965 38.4377 145.083C38.1923 145.189 37.9843 145.344 37.8137 145.547C37.643 145.739 37.5097 145.968 37.4137 146.235C37.3177 146.501 37.2697 146.784 37.2697 147.083V151.963H35.4457V143.691ZM59.5343 151.915L58.5583 153.003L56.8943 151.547C56.4676 151.792 56.0249 151.968 55.5663 152.075C55.1076 152.181 54.6543 152.235 54.2063 152.235C53.3529 152.235 52.5849 152.08 51.9023 151.771C51.2303 151.451 50.6596 151.019 50.1903 150.475C49.7209 149.931 49.3583 149.296 49.1023 148.571C48.8569 147.845 48.7343 147.072 48.7343 146.251C48.7343 145.44 48.8569 144.672 49.1023 143.947C49.3583 143.221 49.7209 142.587 50.1903 142.043C50.6596 141.499 51.2303 141.067 51.9023 140.747C52.5849 140.427 53.3529 140.267 54.2063 140.267C55.0596 140.267 55.8223 140.427 56.4943 140.747C57.1769 141.067 57.7529 141.499 58.2223 142.043C58.6916 142.587 59.0489 143.221 59.2943 143.947C59.5503 144.672 59.6783 145.44 59.6783 146.251C59.6783 146.645 59.6463 147.045 59.5823 147.451C59.5183 147.845 59.4223 148.235 59.2943 148.619C59.1663 149.003 59.0009 149.371 58.7983 149.723C58.5956 150.064 58.3503 150.368 58.0623 150.635L59.5343 151.915ZM54.3343 149.323L55.2943 148.219L56.6863 149.435C57.0489 148.997 57.3049 148.501 57.4543 147.947C57.6036 147.392 57.6783 146.827 57.6783 146.251C57.6783 145.707 57.6089 145.173 57.4703 144.651C57.3423 144.128 57.1396 143.664 56.8623 143.259C56.5849 142.843 56.2223 142.512 55.7743 142.267C55.3369 142.021 54.8143 141.899 54.2063 141.899C53.5983 141.899 53.0703 142.021 52.6223 142.267C52.1849 142.512 51.8276 142.843 51.5503 143.259C51.2729 143.664 51.0649 144.128 50.9263 144.651C50.7983 145.173 50.7343 145.707 50.7343 146.251C50.7343 146.795 50.7983 147.328 50.9263 147.851C51.0649 148.373 51.2729 148.843 51.5503 149.259C51.8276 149.664 52.1849 149.989 52.6223 150.235C53.0703 150.48 53.5983 150.603 54.2063 150.603C54.4196 150.603 54.6329 150.581 54.8463 150.539C55.0703 150.496 55.2836 150.427 55.4863 150.331L54.3343 149.323ZM61.4985 140.539H66.9545C68.2132 140.539 69.1572 140.811 69.7865 141.355C70.4159 141.899 70.7305 142.656 70.7305 143.627C70.7305 144.171 70.6505 144.624 70.4905 144.987C70.3305 145.339 70.1439 145.627 69.9305 145.851C69.7172 146.064 69.5039 146.219 69.2905 146.315C69.0879 146.411 68.9385 146.475 68.8425 146.507V146.539C69.0132 146.56 69.1945 146.613 69.3865 146.699C69.5892 146.784 69.7759 146.923 69.9465 147.115C70.1172 147.296 70.2559 147.536 70.3625 147.835C70.4799 148.133 70.5385 148.507 70.5385 148.955C70.5385 149.627 70.5865 150.24 70.6825 150.795C70.7892 151.339 70.9492 151.728 71.1625 151.963H69.0185C68.8692 151.717 68.7785 151.445 68.7465 151.147C68.7252 150.848 68.7145 150.56 68.7145 150.283C68.7145 149.76 68.6825 149.312 68.6185 148.939C68.5545 148.555 68.4372 148.24 68.2665 147.995C68.0959 147.739 67.8612 147.552 67.5625 147.435C67.2745 147.317 66.9012 147.259 66.4425 147.259H63.4985V151.963H61.4985V140.539ZM63.4985 145.739H66.7785C67.4185 145.739 67.9039 145.589 68.2345 145.291C68.5652 144.981 68.7305 144.523 68.7305 143.915C68.7305 143.552 68.6772 143.259 68.5705 143.035C68.4639 142.8 68.3145 142.619 68.1225 142.491C67.9412 142.363 67.7279 142.277 67.4825 142.235C67.2479 142.192 67.0025 142.171 66.7465 142.171H63.4985V145.739ZM84.9293 144.171C84.8439 143.84 84.7266 143.536 84.5773 143.259C84.4279 142.981 84.2359 142.741 84.0013 142.539C83.7666 142.336 83.4893 142.181 83.1693 142.075C82.8599 141.957 82.4973 141.899 82.0813 141.899C81.4733 141.899 80.9453 142.021 80.4973 142.267C80.0599 142.512 79.7026 142.843 79.4253 143.259C79.1479 143.664 78.9399 144.128 78.8013 144.651C78.6733 145.173 78.6093 145.707 78.6093 146.251C78.6093 146.795 78.6733 147.328 78.8013 147.851C78.9399 148.373 79.1479 148.843 79.4253 149.259C79.7026 149.664 80.0599 149.989 80.4973 150.235C80.9453 150.48 81.4733 150.603 82.0813 150.603C82.5293 150.603 82.9239 150.528 83.2653 150.379C83.6066 150.219 83.8999 150.005 84.1453 149.739C84.3906 149.461 84.5826 149.141 84.7213 148.779C84.8599 148.416 84.9506 148.027 84.9933 147.611H86.9453C86.9026 148.293 86.7533 148.917 86.4973 149.483C86.2519 150.048 85.9159 150.539 85.4893 150.955C85.0626 151.36 84.5613 151.675 83.9853 151.899C83.4093 152.123 82.7746 152.235 82.0813 152.235C81.2279 152.235 80.4599 152.08 79.7773 151.771C79.1053 151.451 78.5346 151.019 78.0653 150.475C77.5959 149.931 77.2333 149.296 76.9773 148.571C76.7319 147.845 76.6093 147.072 76.6093 146.251C76.6093 145.44 76.7319 144.672 76.9773 143.947C77.2333 143.221 77.5959 142.587 78.0653 142.043C78.5346 141.499 79.1053 141.067 79.7773 140.747C80.4599 140.427 81.2279 140.267 82.0813 140.267C82.7213 140.267 83.3239 140.357 83.8893 140.539C84.4546 140.709 84.9506 140.965 85.3773 141.307C85.8146 141.637 86.1666 142.043 86.4333 142.523C86.6999 143.003 86.8653 143.552 86.9293 144.171H84.9293ZM92.3002 152.187C91.6388 152.187 91.0468 152.08 90.5242 151.867C90.0122 151.643 89.5748 151.339 89.2122 150.955C88.8602 150.571 88.5882 150.112 88.3962 149.579C88.2148 149.045 88.1242 148.459 88.1242 147.819C88.1242 147.189 88.2148 146.608 88.3962 146.075C88.5882 145.541 88.8602 145.083 89.2122 144.699C89.5748 144.315 90.0122 144.016 90.5242 143.803C91.0468 143.579 91.6388 143.467 92.3002 143.467C92.9615 143.467 93.5482 143.579 94.0602 143.803C94.5828 144.016 95.0202 144.315 95.3722 144.699C95.7348 145.083 96.0068 145.541 96.1882 146.075C96.3802 146.608 96.4762 147.189 96.4762 147.819C96.4762 148.459 96.3802 149.045 96.1882 149.579C96.0068 150.112 95.7348 150.571 95.3722 150.955C95.0202 151.339 94.5828 151.643 94.0602 151.867C93.5482 152.08 92.9615 152.187 92.3002 152.187ZM92.3002 150.747C92.7055 150.747 93.0575 150.661 93.3562 150.491C93.6548 150.32 93.9002 150.096 94.0922 149.819C94.2842 149.541 94.4228 149.232 94.5082 148.891C94.6042 148.539 94.6522 148.181 94.6522 147.819C94.6522 147.467 94.6042 147.115 94.5082 146.763C94.4228 146.411 94.2842 146.101 94.0922 145.835C93.9002 145.557 93.6548 145.333 93.3562 145.163C93.0575 144.992 92.7055 144.907 92.3002 144.907C91.8948 144.907 91.5428 144.992 91.2442 145.163C90.9455 145.333 90.7002 145.557 90.5082 145.835C90.3162 146.101 90.1722 146.411 90.0762 146.763C89.9908 147.115 89.9482 147.467 89.9482 147.819C89.9482 148.181 89.9908 148.539 90.0762 148.891C90.1722 149.232 90.3162 149.541 90.5082 149.819C90.7002 150.096 90.9455 150.32 91.2442 150.491C91.5428 150.661 91.8948 150.747 92.3002 150.747ZM105.785 151.963H104.057V150.843H104.025C103.779 151.323 103.422 151.669 102.953 151.883C102.483 152.085 101.987 152.187 101.465 152.187C100.814 152.187 100.243 152.075 99.7525 151.851C99.2725 151.616 98.8725 151.301 98.5525 150.907C98.2325 150.512 97.9925 150.048 97.8325 149.515C97.6725 148.971 97.5925 148.389 97.5925 147.771C97.5925 147.024 97.6939 146.379 97.8965 145.835C98.0992 145.291 98.3659 144.843 98.6965 144.491C99.0379 144.139 99.4219 143.883 99.8485 143.723C100.286 143.552 100.729 143.467 101.177 143.467C101.433 143.467 101.694 143.493 101.961 143.547C102.227 143.589 102.483 143.664 102.729 143.771C102.974 143.877 103.198 144.016 103.401 144.187C103.614 144.347 103.79 144.539 103.929 144.763H103.961V140.539H105.785V151.963ZM99.4165 147.915C99.4165 148.267 99.4592 148.613 99.5445 148.955C99.6405 149.296 99.7792 149.6 99.9605 149.867C100.153 150.133 100.393 150.347 100.681 150.507C100.969 150.667 101.31 150.747 101.705 150.747C102.11 150.747 102.457 150.661 102.745 150.491C103.043 150.32 103.283 150.096 103.465 149.819C103.657 149.541 103.795 149.232 103.881 148.891C103.977 148.539 104.025 148.181 104.025 147.819C104.025 146.901 103.817 146.187 103.401 145.675C102.995 145.163 102.441 144.907 101.737 144.907C101.31 144.907 100.947 144.997 100.649 145.179C100.361 145.349 100.121 145.579 99.9285 145.867C99.7472 146.144 99.6139 146.464 99.5285 146.827C99.4539 147.179 99.4165 147.541 99.4165 147.915ZM113.454 147.099C113.432 146.811 113.368 146.533 113.262 146.267C113.166 146 113.027 145.771 112.846 145.579C112.675 145.376 112.462 145.216 112.206 145.099C111.96 144.971 111.683 144.907 111.374 144.907C111.054 144.907 110.76 144.965 110.494 145.083C110.238 145.189 110.014 145.344 109.822 145.547C109.64 145.739 109.491 145.968 109.374 146.235C109.267 146.501 109.208 146.789 109.198 147.099H113.454ZM109.198 148.299C109.198 148.619 109.24 148.928 109.326 149.227C109.422 149.525 109.56 149.787 109.742 150.011C109.923 150.235 110.152 150.416 110.43 150.555C110.707 150.683 111.038 150.747 111.422 150.747C111.955 150.747 112.382 150.635 112.702 150.411C113.032 150.176 113.278 149.829 113.438 149.371H115.166C115.07 149.819 114.904 150.219 114.67 150.571C114.435 150.923 114.152 151.221 113.822 151.467C113.491 151.701 113.118 151.877 112.702 151.995C112.296 152.123 111.87 152.187 111.422 152.187C110.771 152.187 110.195 152.08 109.694 151.867C109.192 151.653 108.766 151.355 108.414 150.971C108.072 150.587 107.811 150.128 107.63 149.595C107.459 149.061 107.374 148.475 107.374 147.835C107.374 147.248 107.464 146.693 107.646 146.171C107.838 145.637 108.104 145.173 108.446 144.779C108.798 144.373 109.219 144.053 109.71 143.819C110.2 143.584 110.755 143.467 111.374 143.467C112.024 143.467 112.606 143.605 113.118 143.883C113.64 144.149 114.072 144.507 114.414 144.955C114.755 145.403 115 145.92 115.15 146.507C115.31 147.083 115.352 147.68 115.278 148.299H109.198Z" fill="#B2B2B2"/>
<defs>
<clipPath id="clip0_1_1097">
<rect width="120.391" height="120.925" fill="white" transform="translate(0.821594 0.0373535)"/>
</clipPath>
<clipPath id="clip1_1_1097">
<rect width="108.13" height="108.13" fill="white" transform="translate(6.54059 6.5)"/>
</clipPath>
</defs>
</svg>
